# xmcd
#
# Track frame offsets:
#	183
#	11713
#	25193
#	39293
#	49805
#	62488
#	74928
#	85265
#	100550
#	111230
#	120553
#	133125
#	145575
#	160073
#
# Disc length: 2318
#
# Revision: 4
# Processed by: cddbd v1.5.1PL0 Copyright (c) Steve Scherf et al.
# Submitted via: dBpowerAMP V4.0
# Normalized: r2:TSWAP
#
DISCID=ba090c0e
DTITLE=Various Artist - Soul Hits  -  Dance Party
DYEAR=1900
DGENRE=Blues
TTITLE0=Sam And Dave - Soul Man
TTITLE1=Eddie Floyd - Knock On Wood
TTITLE2=Clarens Carter - Patches
TTITLE3=Rufus Thomas - Walkin' The Dog
TTITLE4=Fontella Bass - Rescue Me
TTITLE5=Dobie Gray - The in Crowd
TTITLE6=Barbara George - I Know
TTITLE7=Al Wilson - The Snake
TTITLE8=The Olympics - Western Movies
TTITLE9=Sam Cooke - Only Sixteen
TTITLE10=Bob And Earl - The Harlem Shuffle
TTITLE11=Joe Simon - You Keep me Hangin' On
TTITLE12=Bobby Womack - That's The Way I Feel About Cha
TTITLE13=Joe Tex - Hold What You've Got
EXTD=
EXTT0=
EXTT1=
EXTT2=
EXTT3=
EXTT4=
EXTT5=
EXTT6=
EXTT7=
EXTT8=
EXTT9=
EXTT10=
EXTT11=
EXTT12=
EXTT13=
PLAYORDER=
